<?xml version="1.0" encoding="utf-8"?>
<!-- Generator: Adobe Illustrator 12.0.0, SVG Export Plug-In . SVG Version: 6.00 Build 51448)  -->
<!DOCTYPE svg PUBLIC "-//W3C//DTD SVG 1.1//EN" "http://www.w3.org/Graphics/SVG/1.1/DTD/svg11.dtd" [
	<!ENTITY ns_svg "http://www.w3.org/2000/svg">
	<!ENTITY ns_xlink "http://www.w3.org/1999/xlink">
]>
<svg  version="1.1" id="Layer_1" xmlns="&ns_svg;" xmlns:xlink="&ns_xlink;" width="118.234" height="108"
	 viewBox="0 0 118.234 108" overflow="visible" enable-background="new 0 0 118.234 108" xml:space="preserve">
<path fill="#F8BFD7" d="M118.234,58.708c-2.534-10.848-9.567-19.791-19.045-23.753c2.9-9.814,0.479-21.011-6.487-29.843
	C82.058,1.76,70.782,3.475,62.593,9.669c-7.124-7.41-17.833-10.881-28.865-9.29c-8.231,7.548-12.466,18.208-11.184,28.368
	C12.527,31.149,4.123,38.934,0,49.243c2.414,10.899,9.56,19.785,18.922,23.806c-2.833,9.933-0.304,21.067,6.613,29.781
	c10.645,3.354,21.913,1.639,30.105-4.556c7.005,7.474,18.009,10.941,29.038,9.345c8.234-7.544,12.351-18.15,10.888-28.362
	C105.588,76.857,114.055,69.185,118.234,58.708z M73.824,55.143c-0.174,2.863-1.983,5.138-4.3,6.016
	c0.039,2.422-1.504,5.006-4,6.188c-2.623,1.145-5.493,0.752-7.411-0.802c-2.092,1.313-5.047,1.187-7.321-0.407
	c-2.358-1.549-3.461-4.302-3.063-6.733c-2.089-1.244-3.543-3.821-3.325-6.597c0.22-2.778,1.987-5.144,4.356-5.934
	c0-2.554,1.498-5.001,4.081-6.234c2.488-1.182,5.358-0.79,7.279,0.761c2.14-1.224,5.044-1.182,7.451,0.453
	c2.277,1.592,3.333,4.262,2.931,6.69C72.679,49.74,74.045,52.362,73.824,55.143z"/>
</svg>
