<?xml version="1.0" encoding="utf-8"?>
<!-- Generator: Adobe Illustrator 12.0.0, SVG Export Plug-In . SVG Version: 6.00 Build 51448)  -->
<!DOCTYPE svg PUBLIC "-//W3C//DTD SVG 1.1//EN" "http://www.w3.org/Graphics/SVG/1.1/DTD/svg11.dtd" [
	<!ENTITY ns_svg "http://www.w3.org/2000/svg">
	<!ENTITY ns_xlink "http://www.w3.org/1999/xlink">
]>
<svg  version="1.1" id="Layer_1" xmlns="&ns_svg;" xmlns:xlink="&ns_xlink;" width="108.12" height="108" viewBox="0 0 108.12 108"
	 overflow="visible" enable-background="new 0 0 108.12 108" xml:space="preserve">
<path fill="#F8BFD7" d="M101.44,48.016v-0.273c7.519-2.785,6.006-14.288-4.55-12.74c-10.305,1.509-22.019,8.136-31.093,14.461
	c-0.448-1.158-1.059-2.231-1.81-3.194c2.384-0.542,4.906-2.79,6.875-3.987c7.692-4.679,19.306-10.376,22.66-19.111
	c3.093-8.056-5.468-9.591-10.374-7.099c1.223-5.104-1.183-11.012-7.372-9.829C69.589,7.427,65.103,21.772,61.58,32.727
	c-0.796,2.478-2.563,6.717-2.586,9.684c-1.071-0.457-2.221-0.761-3.42-0.905c2.219-10.213,7.753-22.976,5.278-35.354
	C59.179-2.216,48.95-2.002,47.93,6.518c-1.586-1.525-2.674-3.486-4.914-4.369c-6.647-2.618-9.413,4.796-7.917,10.647
	C37.96,24,43.773,33.47,49.227,42.371c-1.075,0.447-2.069,1.044-2.97,1.756c-4.766-9.468-16.076-30.487-27.267-30.511
	c-4.265,2.62-5.224,6.122-3.002,11.466C5.88,21.212,4.132,32.964,9.981,37.368c8.368,6.301,21.067,8.779,32.407,11.916
	c-0.432,1.068-0.729,2.207-0.852,3.397c-10.289-2.142-16.35-4.703-25.548-5.667C6.432,46.013,4.43,47.743,2.609,48.289
	c-5.336,3.595-1.697,11.17,3.822,12.013c-1.886,1.855-6.625,5.25-4.095,9.555c1.809,3.889,7.732,4.226,12.559,2.73
	c10.357-3.212,18.736-8.988,27.541-13.737c0.457,1.092,1.066,2.104,1.796,3.015c-9.746,4.747-22.191,12.422-28.427,20.46
	c-3.925,5.059-3.525,11.228,5.642,11.011c0,0.638,1.547-0.818,1.547-0.182c1.183-1.001,0.819,0.091,2.001-0.91
	c-1.335,3.329-0.1,7.84,2.458,9.01c3.122,2.778,6.958-0.304,8.736-2.185c5.368-5.677,8.054-15.767,10.647-24.024
	c0.59-1.881,2.329-6.983,2.223-9.487c1.072,0.464,2.223,0.777,3.425,0.928c-2.761,7.906-6.27,24.144-5.92,34.495
	c0.3,8.922,11.497,9.498,13.651,0.819c1.632,2.108,5.269,6.641,9.555,4.095c4.071-1.903,4.062-8.135,2.458-12.831
	c-3.5-10.248-9.82-18.158-13.599-27.337c1.095-0.427,2.112-1.002,3.034-1.703c2.654,7.869,16.147,26.032,21.213,29.312
	c7.971,5.162,12.323-3.593,9.009-10.101c7.354,2.837,12.708-4.362,8.464-10.103c-3.859-5.218-24.883-13.062-34.751-14.093
	c0.457-1.043,0.768-2.161,0.926-3.329c9.081,2.623,26.823,7.777,35.463,5.683C110.996,59.208,109.451,49.318,101.44,48.016z
	 M77.069,24.201c-1.026,3.048-12.785,18.041-14.535,20.503c-0.5-0.456-1.031-0.876-1.601-1.248
	C62.999,41.181,74.322,25.812,77.069,24.201z M51.066,35.212l-1.388-17.674c0.565,2.907,2.932,21.004,3.497,23.912
	c-0.606,0.042-1.203,0.119-1.783,0.244C51.393,41.695,51.22,36.764,51.066,35.212z M24.509,32.159
	c3.267,1.015,17.388,12.101,20.193,13.434c-0.473,0.526-0.902,1.09-1.282,1.69C41.191,45.162,26.137,34.928,24.509,32.159z
	 M34.592,57.34L15.44,58.809c2.956-0.639,23.113-3.335,26.068-3.974c0.051,0.763,0.168,1.506,0.349,2.227
	C38.651,57.144,37.847,57.256,34.592,57.34z M33.762,82.684c1.623-2.515,10.315-16.766,11.938-19.282
	c0.585,0.52,1.218,0.985,1.892,1.39C45.556,66.097,34.755,81.784,33.762,82.684z M57.821,86.385l-1.155-7.588
	c-0.652-3.101-1.305-9.135-1.958-12.236c0.663-0.034,1.316-0.106,1.948-0.238C57.244,69.261,58.043,83.568,57.821,86.385z
	 M80.771,74.17l-8.094-5.231c-2.634-1.596-6.809-4.732-9.443-6.329c0.474-0.504,0.913-1.04,1.298-1.617
	C66.733,63.038,78.569,72.126,80.771,74.17z M66.625,53.434c-0.032-0.716-0.113-1.419-0.26-2.1
	c11.444-1.594,21.902-1.775,21.993-1.594C85.399,50.364,69.584,52.811,66.625,53.434z"/>
</svg>
