<?xml version="1.0" encoding="utf-8"?>
<!-- Generator: Adobe Illustrator 12.0.0, SVG Export Plug-In . SVG Version: 6.00 Build 51448)  -->
<!DOCTYPE svg PUBLIC "-//W3C//DTD SVG 1.1//EN" "http://www.w3.org/Graphics/SVG/1.1/DTD/svg11.dtd" [
	<!ENTITY ns_svg "http://www.w3.org/2000/svg">
	<!ENTITY ns_xlink "http://www.w3.org/1999/xlink">
]>
<svg  version="1.1" id="Layer_1" xmlns="&ns_svg;" xmlns:xlink="&ns_xlink;" width="108" height="108" viewBox="0 0 108 108"
	 overflow="visible" enable-background="new 0 0 108 108" xml:space="preserve">
<path fill-rule="evenodd" clip-rule="evenodd" fill="#F8BFD7" d="M97.299,30.512c-9.853-0.923-14.621,6.224-21.032,8.325
	c-0.54-0.921-1.212-1.708-1.752-2.629c7.829-5.074,15.243-13.601,14.562-20.139C88.146,7.146,74.879,1.081,68.008,6.774
	c-7.619,6.314-5.938,14.74-8.985,20.759c-1.033-0.27-2.065-0.351-3.098-0.62c1.948-9.124,1.162-20.396-3.943-24.537
	c-6.968-5.652-20.638-0.559-21.47,8.325c-0.923,9.853,6.225,14.621,8.325,21.032c-0.921,0.54-1.709,1.212-2.629,1.752
	c-5.074-7.829-13.6-15.243-20.139-14.562C7.146,19.854,1.08,33.121,6.774,39.992c6.314,7.62,14.741,5.938,20.758,8.985
	c-0.269,1.033-0.351,2.065-0.619,3.099c-9.124-1.948-20.396-1.162-24.537,3.943c-5.652,6.968-0.56,20.638,8.325,21.47
	c9.853,0.923,14.622-6.224,21.032-8.325c0.54,0.92,1.213,1.708,1.753,2.629c-7.829,5.074-15.244,13.601-14.562,20.139
	c0.93,8.924,14.198,14.989,21.068,9.294c7.62-6.314,5.938-14.74,8.985-20.758c1.033,0.27,2.065,0.351,3.098,0.62
	c-1.948,9.124-1.162,20.396,3.943,24.537c6.968,5.652,20.638,0.559,21.47-8.325c0.923-9.853-6.225-14.621-8.325-21.032
	c0.921-0.54,1.708-1.212,2.629-1.752c5.074,7.829,13.601,15.244,20.139,14.562c8.924-0.931,14.988-14.198,9.295-21.068
	c-6.314-7.619-14.74-5.938-20.759-8.985c0.27-1.033,0.351-2.065,0.62-3.098c9.124,1.948,20.396,1.162,24.537-3.943
	C111.275,45.014,106.183,31.344,97.299,30.512z M38.869,42.423c1.656,0,2.999,1.343,2.999,3s-1.343,2.999-2.999,2.999
	s-2.999-1.342-2.999-2.999S37.213,42.423,38.869,42.423z M33.607,54c0-1.656,1.343-3,2.999-3s2.999,1.343,2.999,3
	s-1.343,2.999-2.999,2.999S33.607,55.657,33.607,54z M38.914,65.658c-1.656,0-2.999-1.342-2.999-2.999c0-1.657,1.343-3,2.999-3
	s2.999,1.342,2.999,3C41.913,64.316,40.57,65.658,38.914,65.658z M45.341,35.916c1.656,0,2.999,1.343,2.999,2.999
	c0,1.656-1.343,3-2.999,3s-2.999-1.343-2.999-3C42.342,37.258,43.685,35.916,45.341,35.916z M45.422,72.13
	c-1.656,0-2.999-1.342-2.999-2.999c0-1.656,1.343-3,2.999-3c1.656,0,2.999,1.344,2.999,3C48.421,70.788,47.078,72.13,45.422,72.13z
	 M54,74.392c-1.656,0-2.999-1.342-2.999-2.998c0-1.656,1.343-3,2.999-3s2.999,1.344,2.999,3C56.999,73.05,55.656,74.392,54,74.392z
	 M54,39.606c-1.656,0-2.999-1.343-2.999-2.999s1.343-2.999,2.999-2.999s2.999,1.343,2.999,2.999S55.656,39.606,54,39.606z
	 M62.577,35.87c1.656,0,2.999,1.342,2.999,3c0,1.656-1.343,2.999-2.999,2.999s-2.999-1.342-2.999-2.999
	C59.578,37.212,60.921,35.87,62.577,35.87z M62.659,72.085c-1.657,0-2.999-1.344-2.999-3c0-1.656,1.342-2.999,2.999-2.999
	c1.656,0,2.999,1.343,2.999,2.999C65.658,70.742,64.315,72.085,62.659,72.085z M69.086,42.342c1.655,0,2.998,1.343,2.998,3
	s-1.343,2.999-2.998,2.999c-1.656,0-3-1.342-3-2.999S67.43,42.342,69.086,42.342z M69.131,65.577c-1.656,0-2.999-1.343-2.999-2.999
	c0-1.656,1.343-3,2.999-3s2.999,1.343,2.999,3C72.13,64.234,70.787,65.577,69.131,65.577z M71.393,56.999
	c-1.655,0-2.999-1.342-2.999-2.999s1.344-3,2.999-3c1.657,0,2.999,1.343,2.999,3S73.05,56.999,71.393,56.999z"/>
</svg>
