<?xml version="1.0" encoding="utf-8"?>
<!-- Generator: Adobe Illustrator 12.0.0, SVG Export Plug-In . SVG Version: 6.00 Build 51448)  -->
<!DOCTYPE svg PUBLIC "-//W3C//DTD SVG 1.1//EN" "http://www.w3.org/Graphics/SVG/1.1/DTD/svg11.dtd" [
	<!ENTITY ns_svg "http://www.w3.org/2000/svg">
	<!ENTITY ns_xlink "http://www.w3.org/1999/xlink">
]>
<svg  version="1.1" id="Layer_1" xmlns="&ns_svg;" xmlns:xlink="&ns_xlink;" width="116.421" height="108"
	 viewBox="0 0 116.421 108" overflow="visible" enable-background="new 0 0 116.421 108" xml:space="preserve">
<path fill="#F8BFD7" d="M73.697,47.409c-0.127-0.296-0.184-0.593-0.326-0.884c-0.142-0.282-0.338-0.521-0.494-0.789
	c14.73-10.402,34.009-29.306,17.739-40.187C74.347-5.333,64.248,19.644,60.252,37.241c-0.622-0.078-1.244-0.063-1.864-0.078
	C56.735,19.199,50.013-6.943,32.443,1.707c-17.567,8.651-0.931,29.92,12.302,42.178c-0.382,0.501-0.763,0.989-1.073,1.526
	C27.275,37.854,1.33,30.652,0.046,50.169c-1.3,19.532,25.436,15.768,42.666,10.431c0.127,0.281,0.184,0.585,0.324,0.869
	c0.142,0.29,0.354,0.53,0.509,0.797C28.8,72.681,9.536,91.579,25.805,102.46c16.257,10.874,26.354-14.103,30.364-31.7
	c0.622,0.078,1.244,0.071,1.864,0.071c1.638,17.979,8.375,44.106,25.931,35.464c17.569-8.659,0.945-29.928-12.287-42.179
	c0.367-0.502,0.749-0.989,1.073-1.526c16.382,7.549,42.341,14.766,43.626-4.752C117.662,38.299,90.927,42.057,73.697,47.409z
	 M58.21,63.055c-5.001,0-9.055-4.055-9.055-9.056s4.054-9.055,9.055-9.055s9.055,4.054,9.055,9.055S63.211,63.055,58.21,63.055z"/>
</svg>
