<?xml version="1.0" encoding="utf-8"?>
<!-- Generator: Adobe Illustrator 12.0.0, SVG Export Plug-In . SVG Version: 6.00 Build 51448)  -->
<!DOCTYPE svg PUBLIC "-//W3C//DTD SVG 1.1//EN" "http://www.w3.org/Graphics/SVG/1.1/DTD/svg11.dtd" [
	<!ENTITY ns_svg "http://www.w3.org/2000/svg">
	<!ENTITY ns_xlink "http://www.w3.org/1999/xlink">
]>
<svg  version="1.1" id="Layer_1" xmlns="&ns_svg;" xmlns:xlink="&ns_xlink;" width="111.236" height="108"
	 viewBox="0 0 111.236 108" overflow="visible" enable-background="new 0 0 111.236 108" xml:space="preserve">
<path fill="#F8BFD7" d="M105.354,46.29c-3.521-0.99-18.419,1.382-30.956,3.683c-2.297,0.315-4.897,0.745-7.417,1.193
	c-0.748,0.114-1.521,0.241-2.297,0.373c-0.134-0.498-0.307-0.979-0.518-1.439c12.275-4.846,34.119-13.795,37.232-17.302
	c4.369-4.917-0.444-13.494-4.442-15.722c-3.995-2.228-7.129-1.502-10.313-3.674c-3.181-2.169-2.996-5.747-6.165-9.049
	c-3.168-3.298-12.687-5.789-16.336-0.315c-2.096,3.143-4.531,18.929-6.226,31.808c-0.361,2.154-0.704,4.5-1.012,6.753
	c-0.104,0.675-0.207,1.364-0.305,2.051c-0.323-0.033-0.65-0.052-0.982-0.052c-0.19,0-0.377,0.018-0.564,0.028
	c-0.811-13.133-2.58-36.927-4.966-40.997c-3.327-5.674-12.97-3.746-16.323-0.633c-3.357,3.113-3.635,6.318-6.682,8.675
	c-3.051,2.355-6.392,1.074-10.51,3.067c-4.121,1.993-9.425,10.274-5.352,15.438c2.901,3.673,24.107,13.843,36.099,19.405
	c-0.253,0.474-0.464,0.974-0.634,1.493c-0.542-0.127-1.086-0.25-1.621-0.369c-2.223-0.536-4.546-1.073-6.695-1.522
	c-12.609-3.105-28.189-6.575-31.879-5.767c-6.425,1.412-7.568,11.177-5.646,15.331c1.924,4.151,4.888,5.406,6.185,9.035
	C8.33,71.408,6.08,74.193,6.7,78.724c0.623,4.534,6.859,12.139,13.028,9.858c4.332-1.6,20.182-18.193,29.239-27.937
	c0.39,0.391,0.818,0.742,1.271,1.06c-0.3,0.504-0.596,1.005-0.879,1.496c-1.338,2.19-2.689,4.465-3.82,6.496
	c-6.702,10.838-14.322,23.84-14.681,27.478c-0.643,6.544,8.295,10.653,12.835,10.108c4.542-0.547,6.652-2.976,10.503-3.09
	c3.853-0.115,5.803,2.885,10.308,3.694s13.664-2.771,13.404-9.341c-0.187-4.616-11.064-24.81-17.536-36.444
	c0.551-0.324,1.064-0.702,1.536-1.128c8.476,10.252,23.372,27.786,27.61,29.64c6.025,2.632,12.692-4.594,13.575-9.086
	c0.885-4.49-0.775-7.245,0.308-10.944c1.082-3.697,4.539-4.625,6.696-8.658C112.261,57.893,111.686,48.072,105.354,46.29z"/>
</svg>
