<?xml version="1.0" encoding="utf-8"?>
<!-- Generator: Adobe Illustrator 12.0.0, SVG Export Plug-In . SVG Version: 6.00 Build 51448)  -->
<!DOCTYPE svg PUBLIC "-//W3C//DTD SVG 1.1//EN" "http://www.w3.org/Graphics/SVG/1.1/DTD/svg11.dtd" [
	<!ENTITY ns_svg "http://www.w3.org/2000/svg">
	<!ENTITY ns_xlink "http://www.w3.org/1999/xlink">
]>
<svg  version="1.1" id="Layer_1" xmlns="&ns_svg;" xmlns:xlink="&ns_xlink;" width="108" height="108" viewBox="0 0 108 108"
	 overflow="visible" enable-background="new 0 0 108 108" xml:space="preserve">
<path fill="#F8BFD7" d="M75.136,46.904c3.49-1.548,8.141-2.494,13.247-2.495c10.83,0,19.617,4.254,19.617,9.497
	c0,5.246-8.787,9.499-19.617,9.499c-5.036,0-9.627-0.919-13.1-2.43c-4.569-1.11-7.902-3.227-8.77-5.751
	c-0.231,2.378-1.131,4.704-2.714,6.665c2.383-1.182,6.214-0.344,10.218,2.075c3.55,1.378,7.482,3.975,11.077,7.569
	c7.658,7.658,10.86,16.878,7.152,20.586c-3.707,3.707-12.927,0.502-20.585-7.156c-3.545-3.543-6.119-7.417-7.513-10.928
	c-2.465-4.028-3.34-7.896-2.173-10.305c-1.951,1.601-4.271,2.522-6.648,2.773c2.518,0.83,4.637,4.108,5.766,8.627
	c1.55,3.491,2.496,8.144,2.497,13.251c0,10.832-4.251,19.619-9.499,19.619c-5.245,0-9.495-8.785-9.496-19.617
	c0-5.032,0.919-9.62,2.427-13.093c1.112-4.578,3.234-7.917,5.766-8.776c-2.382-0.229-4.711-1.124-6.674-2.706
	c1.178,2.382,0.34,6.21-2.076,10.21c-1.379,3.551-3.977,7.483-7.571,11.077c-7.658,7.658-16.876,10.863-20.588,7.154
	c-3.706-3.709-0.501-12.926,7.158-20.585c3.543-3.542,7.414-6.117,10.925-7.511c4.024-2.464,7.89-3.341,10.3-2.179
	c-1.598-1.948-2.515-4.263-2.766-6.636c-0.836,2.517-4.116,4.634-8.638,5.761c-3.49,1.547-8.14,2.492-13.244,2.491
	C8.784,63.591,0,59.337,0,54.094c0-5.244,8.784-9.498,19.618-9.498c5.032,0,9.623,0.919,13.096,2.429
	c4.572,1.112,7.906,3.232,8.771,5.758c0.23-2.38,1.131-4.708,2.713-6.671c-2.382,1.183-6.214,0.345-10.218-2.075
	c-3.55-1.378-7.481-3.975-11.076-7.569c-7.658-7.66-10.863-16.876-7.154-20.586c3.71-3.706,12.927-0.503,20.585,7.155
	c3.542,3.542,6.116,7.412,7.51,10.923c2.467,4.029,3.343,7.9,2.176,10.311c1.951-1.601,4.27-2.522,6.647-2.773
	c-2.519-0.833-4.637-4.112-5.764-8.632c-1.549-3.491-2.496-8.142-2.496-13.249C44.408,8.787,48.661,0,53.904,0
	c5.246,0.002,9.497,8.785,9.497,19.617c0.001,5.038-0.919,9.63-2.43,13.104c-1.111,4.574-3.23,7.906-5.758,8.767
	c2.38,0.23,4.709,1.126,6.671,2.708c-1.181-2.382-0.342-6.213,2.077-10.215c1.379-3.55,3.975-7.481,7.567-11.074
	c7.659-7.658,16.879-10.866,20.586-7.155c3.71,3.707,0.505,12.926-7.155,20.586c-3.543,3.543-7.414,6.117-10.924,7.511
	c-4.026,2.464-7.894,3.34-10.305,2.175c1.601,1.946,2.519,4.263,2.771,6.636C67.341,50.145,70.619,48.03,75.136,46.904z"/>
</svg>
