<?xml version="1.0" encoding="utf-8"?>
<!-- Generator: Adobe Illustrator 12.0.0, SVG Export Plug-In . SVG Version: 6.00 Build 51448)  -->
<!DOCTYPE svg PUBLIC "-//W3C//DTD SVG 1.1//EN" "http://www.w3.org/Graphics/SVG/1.1/DTD/svg11.dtd" [
	<!ENTITY ns_svg "http://www.w3.org/2000/svg">
	<!ENTITY ns_xlink "http://www.w3.org/1999/xlink">
]>
<svg  version="1.1" id="Layer_1" xmlns="&ns_svg;" xmlns:xlink="&ns_xlink;" width="108.884" height="108"
	 viewBox="0 0 108.884 108" overflow="visible" enable-background="new 0 0 108.884 108" xml:space="preserve">
<path fill="#F8BFD7" d="M108.524,46.475c-0.463-0.35-11.484-8.535-26.47-6.905c-5.182,0.564-11.58,3.624-17.57,7.596
	c5.945-12.46,11.12-32.248-4.48-46.853L59.668,0l-0.37,0.258C58.822,0.59,47.632,8.543,44.552,23.298
	c-1.065,5.104-0.131,12.133,1.795,19.059C36.334,32.853,19.112,21.814,0.402,32.139L0,32.362l0.131,0.432
	C0.3,33.349,4.405,46.449,17.487,53.938c4.524,2.59,11.499,3.874,18.68,4.183C24.034,64.706,8.215,77.673,12.251,98.658l0.089,0.451
	l0.45,0.009c0.58,0.012,14.309,0.155,25.474-9.972c3.86-3.502,7.237-9.738,9.75-16.472c2.514,13.575,9.958,32.625,31.163,35.271
	L79.633,108l0.148-0.426c0.189-0.548,4.568-13.56-1.612-27.308c-2.139-4.755-7.025-9.894-12.653-14.363
	c13.687,1.804,34.106,0.61,43.175-18.739l0.193-0.417L108.524,46.475z M59.788,33.708c2.825,4.601,3.528,9.731,2.089,15.263
	c-1.636,1.178-3.221,2.409-4.719,3.66c-1.253-1.371-3.05-2.236-5.053-2.236c-0.553,0-1.088,0.072-1.604,0.196
	C50.157,41.277,57.799,35.142,59.788,33.708z M47.265,45.398c0.614,1.917,1.29,3.802,2.015,5.611
	c-2.213,1.005-3.794,3.149-3.996,5.686c-8.957-2.553-12.439-11.697-13.188-14.031C37.348,41.398,42.445,42.316,47.265,45.398z
	 M32.055,71.77c0.42-5.387,2.868-9.952,7.289-13.582c2.012,0.007,4.013-0.053,5.956-0.183c0.278,2.518,1.92,4.623,4.172,5.563
	C44.274,71.292,34.506,71.779,32.055,71.77z M59.724,80.801c-4.994-2.064-8.565-5.82-10.652-11.147
	c0.626-1.903,1.181-3.819,1.655-5.699c0.445,0.091,0.906,0.139,1.379,0.139c2.086,0,3.951-0.937,5.208-2.408
	C63.066,69.017,60.49,78.472,59.724,80.801z M62.993,63.981c-1.625-1.191-3.285-2.317-4.937-3.355
	c0.569-0.999,0.898-2.151,0.898-3.382c0-1.314-0.377-2.537-1.019-3.58c8.751-3.208,16.948,2.164,18.927,3.613
	C73.36,61.387,68.699,63.64,62.993,63.981z"/>
</svg>
