<?xml version="1.0" encoding="utf-8"?>
<!-- Generator: Adobe Illustrator 12.0.0, SVG Export Plug-In . SVG Version: 6.00 Build 51448)  -->
<!DOCTYPE svg PUBLIC "-//W3C//DTD SVG 1.1//EN" "http://www.w3.org/Graphics/SVG/1.1/DTD/svg11.dtd" [
	<!ENTITY ns_svg "http://www.w3.org/2000/svg">
	<!ENTITY ns_xlink "http://www.w3.org/1999/xlink">
]>
<svg  version="1.1" id="Layer_1" xmlns="&ns_svg;" xmlns:xlink="&ns_xlink;" width="105.655" height="108"
	 viewBox="0 0 105.655 108" overflow="visible" enable-background="new 0 0 105.655 108" xml:space="preserve">
<path fill="#F8BFD7" d="M83.7,35.979c-9.977-3.727-14.276,4.576-14.276,4.576c-5.126,1.493-3.188-3.138-3.188-3.138
	s8.732-3.329,6.173-13.666c-2.557-10.339-12.571-12.17-13.953-23.727L58.466,0c-4.331,10.803-14.479,9.972-19.629,19.284
	c-5.172,9.318,2.387,14.81,2.387,14.81s-0.17,5.352-5.065,2.336c0,0,1.575-9.215-8.639-12.264C17.32,21.112,10.652,28.811,0,24.117
	l0.021,0.03c7.088,9.212,1.221,17.514,6.625,26.689c5.412,9.188,13.974,5.466,13.974,5.466s4.618,1.942-0.081,4.457
	c0,0-8.877-2.922-13.415,6.723C2.603,77.118,9.184,84.83,2.994,94.666c10.182-5.641,17.521,1.394,27.406-2.578
	c9.879-3.967,7.474-12.997,7.474-12.997s2.305-6.663,6.175-0.456c0,0-6.143,7.035,0.959,14.972
	c7.108,7.918,16.806,4.861,23.451,14.393c-1.203-11.535,8.121-15.567,8.304-26.21c0.185-10.643-9.068-11.939-9.068-11.939
	c-4.454-5.809,2.152-4.087,2.152-4.087s4.591,8.143,14.434,4.065c9.836-4.075,10.169-14.226,21.375-17.323
	C94.372,49.81,93.67,39.675,83.7,35.979z M48.066,70.868c-8.189,0-14.828-6.639-14.828-14.828s6.639-14.829,14.828-14.829
	s14.828,6.639,14.828,14.829S56.256,70.868,48.066,70.868z"/>
</svg>
