<?xml version="1.0" encoding="utf-8"?>
<!-- Generator: Adobe Illustrator 12.0.0, SVG Export Plug-In . SVG Version: 6.00 Build 51448)  -->
<!DOCTYPE svg PUBLIC "-//W3C//DTD SVG 1.1//EN" "http://www.w3.org/Graphics/SVG/1.1/DTD/svg11.dtd" [
	<!ENTITY ns_svg "http://www.w3.org/2000/svg">
	<!ENTITY ns_xlink "http://www.w3.org/1999/xlink">
]>
<svg  version="1.1" id="Layer_1" xmlns="&ns_svg;" xmlns:xlink="&ns_xlink;" width="107.999" height="108"
	 viewBox="0 0 107.999 108" overflow="visible" enable-background="new 0 0 107.999 108" xml:space="preserve">
<path fill="#F8BFD7" d="M71.007,58.557c5.863,0.964,24.227,3.15,36.992-4.557c-12.766-7.71-31.129-5.521-36.992-4.558
	c5.559-2.096,22.555-9.385,29.759-22.442c-14.911-0.294-29.72,10.783-34.316,14.549c3.766-4.595,14.84-19.406,14.55-34.314
	c-13.058,7.202-20.347,24.199-22.444,29.758C59.52,31.131,61.707,12.766,53.999,0c-7.711,12.769-5.52,31.137-4.556,36.998
	C47.349,31.44,40.063,14.438,27,7.235c-0.293,14.914,10.789,29.727,14.553,34.319C36.961,37.79,22.148,26.708,7.235,27.001
	c7.201,13.06,24.204,20.347,29.761,22.443C31.136,48.481,12.769,46.29,0,54c12.765,7.708,31.13,5.521,36.994,4.558
	c-5.561,2.096-22.558,9.383-29.759,22.441C22.142,81.293,36.953,70.216,41.55,66.45C37.784,71.046,26.707,85.856,27,100.765
	c13.059-7.202,20.346-24.198,22.442-29.759c-0.963,5.863-3.151,24.227,4.557,36.994c7.71-12.766,5.521-31.131,4.557-36.994
	c2.1,5.561,9.386,22.557,22.443,29.759C81.293,85.856,70.215,71.046,66.45,66.45c4.596,3.766,19.404,14.841,34.315,14.549
	C93.564,67.94,76.567,60.654,71.007,58.557z M54,63.354c-5.167,0-9.354-4.188-9.354-9.354s4.188-9.354,9.354-9.354
	c5.166,0,9.354,4.188,9.354,9.354S59.166,63.354,54,63.354z"/>
</svg>
